<svg id="Capa_1" enable-background="new 0 0 511.92 511.92" height="512" viewBox="0 0 511.92 511.92" width="512" xmlns="http://www.w3.org/2000/svg"><path d="m179.15 268.27h30v99h-30z" fill="#93b7c0" transform="matrix(.707 .707 -.707 .707 281.563 -44.212)"/><circle cx="339.46" cy="172.46" fill="#acd5df" r="165"/><path d="m434.919 77-190.918 190.919c52.721 52.721 138.198 52.721 190.919 0 52.72-52.72 52.72-138.198-.001-190.919z" fill="#c4f3ff"/><path d="m413.706 246.706c52.721-52.721 62.219-128.7 21.213-169.706-52.72-52.72-138.198-52.72-190.918 0-52.721 52.721-52.721 138.198 0 190.919 41.005 41.005 116.984 31.508 169.705-21.213z" fill="#fff"/><path d="m44.531 439.105-28.284 56.569c11.716 11.716 30.711 11.716 42.426 0z" fill="#93b7c0"/><path d="m16.247 453.247c-11.716 11.716-11.716 30.711 0 42.426l42.426-42.426z" fill="#acd5df"/><path d="m148.541 320.952-111.081 153.508 21.213 21.213 132.295-132.294z" fill="#3857bc"/><path d="m-.546 382.706h187.092v30h-187.092z" fill="#3a6fd8" transform="matrix(.707 -.707 .707 .707 -253.982 182.247)"/><path d="m201.574 352.772-21.213-21.213-21.213 21.213 21.213 21.213c5.858 5.858 15.355 5.858 21.213 0 5.858-5.857 5.858-15.355 0-21.213z" fill="#93b7c0"/><path d="m180.361 352.772c5.858-5.858 5.858-15.355 0-21.213l-21.213-21.213c-5.858-5.858-15.355-5.858-21.213 0s-5.858 15.355 0 21.213l21.213 21.213c5.858 5.858 15.355 5.858 21.213 0z" fill="#acd5df"/><path d="m339.5 29.92c-32.695 0-63.451 10.779-88.943 31.172-3.235 2.587-3.76 7.307-1.172 10.541 2.588 3.236 7.309 3.76 10.541 1.172 22.804-18.242 50.321-27.885 79.574-27.885 70.304 0 127.5 57.196 127.5 127.5s-57.196 127.5-127.5 127.5-127.5-57.196-127.5-127.5c0-29.253 9.643-56.77 27.885-79.574 2.588-3.234 2.063-7.954-1.172-10.541-3.234-2.589-7.953-2.064-10.541 1.172-20.393 25.492-31.172 56.248-31.172 88.943 0 78.575 63.925 142.5 142.5 142.5s142.5-63.925 142.5-142.5-63.925-142.5-142.5-142.5z"/><path d="m461.477 50.443c-67.258-67.258-176.695-67.258-243.953 0-61.866 61.867-66.82 159.417-14.873 227.005l-32.857 32.856-5.303-5.303c-8.773-8.771-23.047-8.771-31.82 0-4.249 4.25-6.59 9.9-6.59 15.911 0 3.414.756 6.713 2.188 9.704l-117.286 117.287c-7.082 7.083-10.983 16.5-10.983 26.517s3.901 19.434 10.983 26.517c7.083 7.082 16.5 10.983 26.517 10.983s19.434-3.901 26.517-10.983l117.285-117.285c2.992 1.432 6.291 2.188 9.706 2.188 6.01 0 11.66-2.34 15.91-6.59 8.772-8.773 8.772-23.047 0-31.82l-5.303-5.303 32.856-32.857c30.849 23.71 67.937 35.571 105.029 35.571 44.174 0 88.348-16.814 121.977-50.443 67.257-67.26 67.257-176.696 0-243.955zm-439.886 439.886c-6.912-6.911-8.354-17.227-4.376-25.587l29.962 29.962c-8.359 3.979-18.676 2.537-25.586-4.375zm174.72-121.687c-1.416 1.417-3.3 2.197-5.303 2.197-1.998 0-3.877-.776-5.293-2.187-.025-.025-21.225-21.224-21.225-21.224-2.928-2.927-7.677-2.93-10.606.001-2.929 2.929-2.929 7.678.001 10.606l15.91 15.909-111.082 111.081-31.818-31.818 116.384-116.385c2.929-2.93 2.929-7.678 0-10.607-2.925-2.924-2.925-7.682 0-10.605 1.462-1.463 3.382-2.193 5.303-2.193s3.841.73 5.303 2.193l42.427 42.427c2.923 2.923 2.923 7.681-.001 10.605zm-5.303-37.123-10.606-10.606 31.942-31.941c1.683 1.835 3.403 3.648 5.181 5.425s3.59 3.497 5.425 5.181zm259.861-47.73c-61.408 61.41-161.33 61.41-222.738 0-61.41-61.409-61.41-161.329 0-222.738 30.704-30.705 71.037-46.058 111.369-46.058s80.665 15.353 111.369 46.058c61.41 61.409 61.41 161.329 0 222.738z"/></svg>